
        <svg xmlns="http://www.w3.org/2000/svg" xmlns:xlink="http://www.w3.org/1999/xlink" version="1.1" width="3187.5" 
        height="1056.8430884730797" viewBox="0 0 3187.5 1056.8430884730797">
			<rect fill="#000000" width="3187.5" height="1056.8430884730797"/>
			<g transform="scale(9.375) translate(10, 10)">
				<defs id="SvgjsDefs4033"><linearGradient id="SvgjsLinearGradient4040"><stop id="SvgjsStop4041" stop-color="#b88746" offset="0"></stop><stop id="SvgjsStop4042" stop-color="#fdf5a6" offset="1"></stop></linearGradient><linearGradient id="SvgjsLinearGradient4043"><stop id="SvgjsStop4044" stop-color="#b88746" offset="0"></stop><stop id="SvgjsStop4045" stop-color="#fdf5a6" offset="1"></stop></linearGradient></defs><g id="SvgjsG4034" featureKey="JQyOZB-0" transform="matrix(1.1678831076176235,0,0,1.1678831076176235,-2.5401476524945426,-12.379561386258858)" fill="#cbb26b"><g xmlns="http://www.w3.org/2000/svg"><circle cx="35.6" cy="28.1" r="1.6"></circle><circle cx="45.7" cy="28.1" r="1.6"></circle><path d="M82.8,34.5H53.5c0.5-1.7,0.8-3.6,0.8-5.5c0-8.9-1.1-18.4-13.3-18.4c-6,0-13.2,3.2-13.3,18.4c0,2.1,0.4,4.1,1,6   c-1.7,0.8-2.9,2.5-2.9,4.5v5.9c-4.7,1.8-8.9,5.7-8.9,12.6v4.3h-12c-0.8,0-1.6,0.3-2.1,0.9c-0.5,0.7-0.7,1.5-0.6,2.3L6,86.8   c0.1,0.5,0.2,0.9,0.5,1.3c-0.4,0.1-0.7,0.5-0.7,0.9c0,0.5,0.4,0.9,0.9,1l0,0h0.1h9.1h2h22.5h23.7h9h0.3c0.1,0,0.2,0,0.2-0.1   c1.4-0.3,2.5-1.5,2.5-2.9c0-1.6-1.3-3-3-3h-7.7v-6.1h17.4c2.7,0,5-2.2,5-5V39.5C87.8,36.7,85.5,34.5,82.8,34.5z M33.9,20.4   c-0.7,1-1.6,1.6-2.3,1.6c-0.4,0-0.6-0.1-0.8-0.4c0-0.1-0.1-0.1-0.1-0.1c0.4-1.5,0.9-2.8,1.5-3.9C32.5,18.6,33.1,19.5,33.9,20.4z    M36,19.7c-0.1-0.1-0.2-0.2-0.3-0.3c-1.1-1.2-1.8-2.5-2-3.9c0.4-0.4,0.8-0.8,1.2-1.1c0.6,1.8,1.9,3.4,3.8,4.6c2.1,1.3,4.6,2,7.3,2   c1.8,0,3.7-0.3,5.5-1c0.2,0.6,0.3,1.2,0.4,1.9C47,23.7,41.5,23.4,37.7,21C37,20.6,36.5,20.1,36,19.7z M38.6,12.8   c1.7,3.4,5,4.3,8.2,4.3c1.2,0,2.3-0.2,3.4-0.3c0.2,0.4,0.4,0.8,0.6,1.2c-4,1.4-8.1,1.1-11.2-0.8c-1.6-1.1-2.7-2.5-3-3.9   C37.3,13.2,37.9,13,38.6,12.8z M41.1,12.6c3.4,0,5.9,0.8,7.6,2.3c-4.7,0.4-6.7-0.7-7.7-2.3C41,12.6,41,12.6,41.1,12.6z M29.9,29   c0-1.9,0.1-3.7,0.3-5.2c0.4,0.2,0.9,0.3,1.4,0.3c0.1,0,0.1,0,0.1,0c1.4-0.1,2.7-1,3.7-2.3c0.4,0.3,0.8,0.6,1.3,0.9   c2.6,1.6,5.7,2.4,8.9,2.4c2.2,0,4.5-0.4,6.6-1.1c0.1,1.5,0.2,3.2,0.2,5c0.1,1.9-0.2,3.8-0.8,5.5H30.8c0,0,0,0-0.1,0   C30.2,32.8,29.9,30.9,29.9,29z M4.2,65.2c-0.1-0.3,0-0.5,0.1-0.6c0.1-0.1,0.3-0.2,0.5-0.2h14.6c0.6,0,1.2,0.5,1.3,1.1l3.8,21.3   c0.1,0.3,0,0.5-0.1,0.6c-0.1,0.1-0.3,0.2-0.5,0.2h-7.6l2-11.8v-0.2c0-1.6-1.5-2.9-2.7-2.9h-3.9c-1.2,0-2.6,1.2-2.7,2.8l-1.4,8.8   L4.2,65.2z M14.1,87.6H9.3c-0.1,0-0.1,0-0.2,0l1.8-11.8v-0.2c0-0.4,0.5-0.8,0.6-0.8h3.9c0.2,0.1,0.6,0.4,0.6,0.8L14.1,87.6z    M73.1,86c0.5,0,0.9,0.4,0.9,0.9s-0.4,0.9-0.9,0.9H40.4c-0.5,0-0.9-0.4-0.9-0.9s0.4-0.9,0.9-0.9h7.8h17.2H73.1z M40.4,84   c-1.6,0-3,1.3-3,3c0,0.4,0.1,0.7,0.2,1H26.4c0.2-0.5,0.3-1.1,0.2-1.6l-3.8-21.3c-0.2-1.6-1.7-2.8-3.3-2.8h-0.6V58   c0-6.1,3.8-9,6.9-10.3v25.2c0,2.8,2.3,5,5,5h17.4V84H40.4z M50.3,83.9l0-27.2c0-1.6,1.5-2.9,2.4-2.9h8.2c1,0,2.4,1.3,2.4,2.9v27.2   H50.3z M85.7,72.9c0,1.6-1.3,2.9-2.9,2.9H65.4V56.7c0-2.8-2.5-5-4.5-5h-8.2c-2.1,0-4.5,2.2-4.5,5v19.1H30.8c-1.6,0-2.9-1.3-2.9-2.9   V39.5c0-1.6,1.3-2.9,2.9-2.9h52c1.6,0,2.9,1.3,2.9,2.9V72.9z"></path></g></g><g id="SvgjsG4035" featureKey="SbCDzn-0" transform="matrix(1.0970925941395206,0,0,1.0970925941395206,119.69281436659627,23.22929531939413)" fill="url(#SvgjsLinearGradient4040)"><path d="M9.54 15.82 l-5.76 0 l-1.5 4.18 l-2 0 l5.4 -14.36 l2.2 0 l5.2 14.36 l-2.12 0 z M4.38 14.1 l4.46 0 l-2.12 -6.32 l-0.04 0 z M24.32 11.58 l0 -5.94 l1.94 0 l0 14.36 l-1.94 0 l0 -6.7 l-7.5 0 l0 6.7 l-1.94 0 l0 -14.36 l1.94 0 l0 5.94 l7.5 0 z M28.060000000000002 7.359999999999999 l0 -1.72 l11.66 0 l0 1.72 l-4.86 0 l0 12.64 l-1.94 0 l0 -12.64 l-4.86 0 z M43.76 5.640000000000001 l0 14.36 l-1.94 0 l0 -14.36 l1.94 0 z M57.56 9.84 l-1.82 0 c-0.1 -2.22 -1.94 -2.92 -3.56 -2.92 c-1.22 0 -3.28 0.34 -3.28 2.52 c0 1.22 0.86 1.62 1.7 1.82 l4.1 0.94 c1.86 0.44 3.26 1.56 3.26 3.84 c0 3.4 -3.16 4.34 -5.62 4.34 c-2.66 0 -3.7 -0.8 -4.34 -1.38 c-1.22 -1.1 -1.46 -2.3 -1.46 -3.64 l1.82 0 c0 2.6 2.12 3.36 3.96 3.36 c1.4 0 3.76 -0.36 3.76 -2.42 c0 -1.5 -0.7 -1.98 -3.06 -2.54 l-2.94 -0.68 c-0.94 -0.22 -3.06 -0.88 -3.06 -3.38 c0 -2.24 1.46 -4.44 4.94 -4.44 c5.02 0 5.52 3 5.6 4.58 z M69.88000000000001 11.58 l0 -5.94 l1.94 0 l0 14.36 l-1.94 0 l0 -6.7 l-7.5 0 l0 6.7 l-1.94 0 l0 -14.36 l1.94 0 l0 5.94 l7.5 0 z M82.88 15.82 l-5.76 0 l-1.5 4.18 l-2 0 l5.4 -14.36 l2.2 0 l5.2 14.36 l-2.12 0 z M77.72 14.1 l4.46 0 l-2.12 -6.32 l-0.04 0 z M101.9 20 l-1.88 0 l0 -8.48 c0 -0.42 0.04 -2.24 0.04 -3.58 l-0.04 0 l-4.04 12.06 l-1.92 0 l-4.04 -12.04 l-0.04 0 c0 1.32 0.04 3.14 0.04 3.56 l0 8.48 l-1.88 0 l0 -14.36 l2.78 0 l4.1 12.14 l0.04 0 l4.08 -12.14 l2.76 0 l0 14.36 z M119.84 5.640000000000001 l1.94 0 l0 9.32 c0 2.94 -1.84 5.42 -5.78 5.42 c-3.86 0 -5.52 -2.48 -5.52 -5.16 l0 -9.58 l1.94 0 l0 9.04 c0 3.12 1.9 3.98 3.64 3.98 c1.78 0 3.78 -0.82 3.78 -3.94 l0 -9.08 z M126.8 5.640000000000001 l0 12.64 l7.28 0 l0 1.72 l-9.22 0 l0 -14.36 l1.94 0 z M151 11.58 l0 -5.94 l1.94 0 l0 14.36 l-1.94 0 l0 -6.7 l-7.5 0 l0 6.7 l-1.94 0 l0 -14.36 l1.94 0 l0 5.94 l7.5 0 z M164 15.82 l-5.76 0 l-1.5 4.18 l-2 0 l5.4 -14.36 l2.2 0 l5.2 14.36 l-2.12 0 z M158.84 14.1 l4.46 0 l-2.12 -6.32 l-0.04 0 z M176.20000000000002 17.04 l0.98 -1.2 l1.82 1.42 c1.02 -1.02 1.58 -2.6 1.58 -4.44 c0 -3.38 -1.88 -5.84 -5 -5.84 s-5 2.46 -5 5.84 s1.88 5.84 5 5.84 c0.8 0 1.52 -0.16 2.12 -0.46 z M182.46 19.96 l-0.98 1.16 l-2.2 -1.7 c-0.94 0.6 -2.18 0.96 -3.7 0.96 c-5.36 0 -7 -4.46 -7 -7.56 s1.64 -7.56 7 -7.56 s7 4.46 7 7.56 c0 1.82 -0.56 4.08 -2.08 5.62 z"></path></g><g id="SvgjsG4036" featureKey="m0CQaI-0" transform="matrix(0.5474727024886091,0,0,0.5474727024886091,119.82480851069606,53.12029372065869)" fill="url(#SvgjsLinearGradient4043)"><path d="M9.42 8.1 l-3.32 11.9 l-2.04 0 l-3.74 -14.36 l2.1 0 l2.68 11.68 l0.04 0 l3.22 -11.68 l2.12 0 l3.22 11.68 l0.04 0 l2.68 -11.68 l2.14 0 l-3.78 14.36 l-2.04 0 l-3.28 -11.9 l-0.04 0 z M41.196 18.28 l0 1.72 l-10.6 0 l0 -14.36 l10.46 0 l0 1.72 l-8.52 0 l0 4.4 l7.86 0 l0 1.72 l-7.86 0 l0 4.8 l8.66 0 z M55.632 7.300000000000001 l0 4.42 l3.5 0 c1.86 0 3 -0.56 3 -2.32 c0 -1.34 -0.82 -2.1 -2.98 -2.1 l-3.52 0 z M53.69199999999999 20 l0 -14.36 l6.32 0 c2.68 0 4.06 1.66 4.06 3.62 c0 0.94 -0.34 2.26 -1.92 3 c0.94 0.38 2.6 1.04 2.6 3.5 c0 2.3 -1.7 4.24 -4.88 4.24 l-6.18 0 z M55.632 13.3 l0 5.04 l4.14 0 c2.02 0 3.04 -1.02 3.04 -2.62 c0 -2.02 -1.78 -2.42 -3.36 -2.42 l-3.82 0 z M92.724 20 l0 -14.36 l5.82 0 c3.74 0 6.04 2.84 6.04 6.98 c0 3.22 -1.4 7.38 -6.12 7.38 l-5.74 0 z M94.664 7.300000000000001 l0 11.04 l3.76 0 c2.52 0 4.16 -1.98 4.16 -5.6 s-1.66 -5.44 -4.3 -5.44 l-3.62 0 z M127.85999999999999 18.28 l0 1.72 l-10.6 0 l0 -14.36 l10.46 0 l0 1.72 l-8.52 0 l0 4.4 l7.86 0 l0 1.72 l-7.86 0 l0 4.8 l8.66 0 z M145.57599999999996 17.88 l4.06 -12.24 l2.18 0 l-5.24 14.36 l-2.06 0 l-5.24 -14.36 l2.16 0 l4.1 12.24 l0.04 0 z M174.53199999999998 18.28 l0 1.72 l-10.6 0 l0 -14.36 l10.46 0 l0 1.72 l-8.52 0 l0 4.4 l7.86 0 l0 1.72 l-7.86 0 l0 4.8 l8.66 0 z M189.008 5.640000000000001 l0 12.64 l7.28 0 l0 1.72 l-9.22 0 l0 -14.36 l1.94 0 z M219.444 12.82 c0 -3.38 -1.88 -5.84 -5 -5.84 s-5 2.46 -5 5.84 s1.88 5.84 5 5.84 s5 -2.46 5 -5.84 z M221.444 12.82 c0 3.1 -1.64 7.56 -7 7.56 s-7 -4.46 -7 -7.56 s1.64 -7.56 7 -7.56 s7 4.46 7 7.56 z M235.87999999999997 7.300000000000001 l0 4.98 l3.86 0 c1.74 0 2.92 -0.64 2.92 -2.58 c0 -1.82 -1.24 -2.4 -2.84 -2.4 l-3.94 0 z M235.87999999999997 13.940000000000001 l0 6.06 l-1.94 0 l0 -14.36 l6.46 0 c2.66 0 4.26 1.72 4.26 4.04 c0 2 -1.14 4.26 -4.26 4.26 l-4.52 0 z M267.876 18.28 l0 1.72 l-10.6 0 l0 -14.36 l10.46 0 l0 1.72 l-8.52 0 l0 4.4 l7.86 0 l0 1.72 l-7.86 0 l0 4.8 l8.66 0 z M282.592 13.84 l0 6.16 l-1.94 0 l0 -14.36 l6.64 0 c2.36 0 4.72 0.82 4.72 3.86 c0 2.12 -1.08 2.9 -2 3.44 c0.82 0.34 1.64 0.7 1.72 2.7 l0.12 2.6 c0.02 0.8 0.12 1.1 0.72 1.44 l0 0.32 l-2.38 0 c-0.28 -0.88 -0.34 -3.06 -0.34 -3.6 c0 -1.18 -0.24 -2.56 -2.56 -2.56 l-4.7 0 z M282.592 7.300000000000001 l0 4.88 l4.5 0 c1.42 0 2.92 -0.36 2.92 -2.48 c0 -2.22 -1.62 -2.4 -2.58 -2.4 l-4.84 0 z"></path></g>
			</g>
		</svg>
	